{
	"asset":{
		"generator":"Khronos glTF Blender I/O v5.0.21",
		"version":"2.0"
	},
	"scene":0,
	"scenes":[
		{
			"name":"Scene",
			"nodes":[
				66
			]
		}
	],
	"nodes":[
		{
			"name":"head",
			"rotation":[
				4.897056982144932e-09,
				0,
				0,
				1
			],
			"translation":[
				0,
				0.46469807624816895,
				-0.04503309726715088
			]
		},
		{
			"name":"L_thumbC",
			"rotation":[
				-1.02543090463314e-07,
				-0.04361927881836891,
				-1.5894178773123713e-07,
				0.9990482330322266
			],
			"scale":[
				1,
				0.9999998807907104,
				1
			],
			"translation":[
				0,
				0.05180924013257027,
				-2.1792948246002197e-07
			]
		},
		{
			"children":[
				1
			],
			"name":"L_thumbB",
			"rotation":[
				-0.45465973019599915,
				0.30992773175239563,
				-0.33435091376304626,
				0.7651397585868835
			],
			"scale":[
				1,
				0.9999998807907104,
				0.9999999403953552
			],
			"translation":[
				0.014526233077049255,
				0.03665657341480255,
				-0.06370672583580017
			]
		},
		{
			"children":[
				2
			],
			"name":"L_thumbA",
			"rotation":[
				0.6419931650161743,
				0.06669467687606812,
				0.07131212949752808,
				0.7604677677154541
			],
			"scale":[
				1,
				1.0000001192092896,
				1.0000001192092896
			],
			"translation":[
				0.00589171564206481,
				0.025990160182118416,
				0.04484282433986664
			]
		},
		{
			"name":"L_indexC",
			"rotation":[
				-2.342858351767063e-09,
				1.564512785989791e-08,
				-2.0372681319713593e-10,
				1
			],
			"translation":[
				3.4621916711330414e-07,
				0.03415973484516144,
				-1.862645149230957e-08
			]
		},
		{
			"children":[
				4
			],
			"name":"L_indexB",
			"rotation":[
				0.005772927775979042,
				0.00031898781890049577,
				0.002440386451780796,
				0.9999803304672241
			],
			"scale":[
				0.9999998807907104,
				0.9999998807907104,
				0.9999998807907104
			],
			"translation":[
				-4.391622496768832e-07,
				0.045806847512722015,
				1.955777406692505e-08
			]
		},
		{
			"children":[
				5
			],
			"name":"L_indexA",
			"rotation":[
				-0.014170742593705654,
				-0.021458934992551804,
				-0.009064292535185814,
				0.9996281862258911
			],
			"scale":[
				1,
				1,
				0.9999999403953552
			],
			"translation":[
				-0.010004645213484764,
				0.18806038796901703,
				0.046838484704494476
			]
		},
		{
			"name":"L_middleC",
			"rotation":[
				3.573950380086899e-08,
				-1.7774073057807982e-07,
				-2.8155045583844185e-06,
				1
			],
			"scale":[
				0.9999999403953552,
				1,
				1
			],
			"translation":[
				1.1944212019443512e-07,
				0.0427231565117836,
				1.4901161193847656e-08
			]
		},
		{
			"children":[
				7
			],
			"name":"L_middleB",
			"rotation":[
				-0.011249050498008728,
				-0.001771969604305923,
				-0.0028601554222404957,
				0.9999310970306396
			],
			"scale":[
				0.9999999403953552,
				0.9999999403953552,
				0.9999998807907104
			],
			"translation":[
				-1.548323780298233e-07,
				0.04307222366333008,
				3.91155481338501e-08
			]
		},
		{
			"children":[
				8
			],
			"name":"L_middleA",
			"rotation":[
				-0.014860800467431545,
				-0.05702489987015724,
				-0.009542022831737995,
				0.9982165694236755
			],
			"scale":[
				0.9999999403953552,
				1,
				0.9999999403953552
			],
			"translation":[
				-0.009954993613064289,
				0.19732339680194855,
				0.004475854337215424
			]
		},
		{
			"name":"L_ringC",
			"rotation":[
				3.439890861045569e-08,
				3.0850060284137726e-09,
				3.058768925257027e-06,
				1
			],
			"translation":[
				-6.792834028601646e-08,
				0.03895878419280052,
				1.30385160446167e-08
			]
		},
		{
			"children":[
				10
			],
			"name":"L_ringB",
			"rotation":[
				0.015478190034627914,
				-0.002163817174732685,
				-0.003516201861202717,
				0.9998716711997986
			],
			"scale":[
				1,
				1,
				0.9999999403953552
			],
			"translation":[
				-8.440110832452774e-09,
				0.045482005923986435,
				-4.6566128730773926e-09
			]
		},
		{
			"children":[
				11
			],
			"name":"L_ringA",
			"rotation":[
				-0.006273961625993252,
				-0.09910395741462708,
				-0.008644523099064827,
				0.9950197339057922
			],
			"scale":[
				0.9999998211860657,
				1,
				0.9999998807907104
			],
			"translation":[
				-0.002330359071493149,
				0.1933792680501938,
				-0.03591519966721535
			]
		},
		{
			"name":"L_pinkyC",
			"rotation":[
				-1.1519828149175737e-06,
				-0.06104913726449013,
				-4.834724222746445e-06,
				0.9981347918510437
			],
			"scale":[
				0.9999999403953552,
				1,
				1
			],
			"translation":[
				-7.078051567077637e-08,
				0.03587350994348526,
				-5.4016709327697754e-08
			]
		},
		{
			"children":[
				13
			],
			"name":"L_pinkyB",
			"rotation":[
				-0.002010555472224951,
				-0.02777792513370514,
				-0.0025670162867754698,
				0.9996088147163391
			],
			"scale":[
				1,
				0.9999999403953552,
				0.9999999403953552
			],
			"translation":[
				-9.778887033462524e-09,
				0.043110255151987076,
				3.166496753692627e-08
			]
		},
		{
			"children":[
				14
			],
			"name":"L_pinkyA",
			"rotation":[
				-0.006570959463715553,
				-0.14049184322357178,
				-0.008713489398360252,
				0.9900217056274414
			],
			"scale":[
				1,
				0.9999999403953552,
				0.9999999403953552
			],
			"translation":[
				0.013335572555661201,
				0.18550732731819153,
				-0.07204172015190125
			]
		},
		{
			"name":"L_weapon",
			"rotation":[
				-0.05326135456562042,
				0.7108999490737915,
				0.6928650736808777,
				0.10827060043811798
			],
			"scale":[
				1,
				1,
				0.9999999403953552
			],
			"translation":[
				0.10053393989801407,
				0.1433340311050415,
				0.0059660375118255615
			]
		},
		{
			"children":[
				3,
				6,
				9,
				12,
				15,
				16
			],
			"name":"L_wrist",
			"rotation":[
				0.015663830563426018,
				0.09621501713991165,
				-0.01308270264416933,
				0.9951513409614563
			],
			"scale":[
				0.9999999403953552,
				0.9999999403953552,
				0.9999999403953552
			],
			"translation":[
				5.475521902553737e-08,
				0.32909095287323,
				5.122274160385132e-09
			]
		},
		{
			"children":[
				17
			],
			"name":"L_elbow",
			"rotation":[
				0.004231003113090992,
				0.00011800653010141104,
				0.018920594826340675,
				0.9998120665550232
			],
			"scale":[
				1.0000001192092896,
				0.9999998807907104,
				1
			],
			"translation":[
				4.7431967686861753e-08,
				0.23676608502864838,
				-3.3178366720676422e-09
			]
		},
		{
			"children":[
				18
			],
			"name":"L_shoulder",
			"rotation":[
				-0.009607984684407711,
				-0.0006189976702444255,
				0.0014590092469006777,
				0.9999526143074036
			],
			"translation":[
				0.07355287671089172,
				0.2332930713891983,
				-0.05527281388640404
			]
		},
		{
			"children":[
				19
			],
			"name":"L_clavicle",
			"rotation":[
				0.007335993926972151,
				-0.007335992995649576,
				-0.7070697546005249,
				0.7070676684379578
			],
			"scale":[
				0.9999998807907104,
				0.9999998807907104,
				1
			],
			"translation":[
				0.045787401497364044,
				0.32811617851257324,
				-0.06229199096560478
			]
		},
		{
			"name":"R_thumbC",
			"rotation":[
				6.525468876361629e-08,
				-0.04361897334456444,
				5.5000374032943e-08,
				0.9990482330322266
			],
			"scale":[
				1.0000001192092896,
				1.0000001192092896,
				1
			],
			"translation":[
				4.6193599700927734e-07,
				-0.05180714279413223,
				-8.614733815193176e-07
			]
		},
		{
			"children":[
				21
			],
			"name":"R_thumbB",
			"rotation":[
				-0.45466044545173645,
				0.30992814898490906,
				-0.3343505859375,
				0.7651393413543701
			],
			"scale":[
				0.9999999403953552,
				1.0000001192092896,
				1
			],
			"translation":[
				-0.014528758823871613,
				-0.036656029522418976,
				0.0637100487947464
			]
		},
		{
			"children":[
				22
			],
			"name":"R_thumbA",
			"rotation":[
				0.6419930458068848,
				0.06669509410858154,
				0.07131285220384598,
				0.7604677677154541
			],
			"scale":[
				0.9999999403953552,
				1,
				0.9999999403953552
			],
			"translation":[
				-0.005890535190701485,
				-0.02598702348768711,
				-0.044843267649412155
			]
		},
		{
			"name":"R_indexC",
			"rotation":[
				1.3096723705530167e-09,
				-4.7093635657802224e-09,
				-3.2014213502407074e-10,
				1
			],
			"translation":[
				-2.1348241716623306e-06,
				-0.03416211158037186,
				3.073364496231079e-07
			]
		},
		{
			"children":[
				24
			],
			"name":"R_indexB",
			"rotation":[
				0.005772866308689117,
				0.0003190509742125869,
				0.0024408376775681973,
				0.9999803304672241
			],
			"scale":[
				1,
				0.9999999403953552,
				0.9999999403953552
			],
			"translation":[
				3.1328381737694144e-06,
				-0.045802682638168335,
				-5.774199962615967e-07
			]
		},
		{
			"children":[
				25
			],
			"name":"R_indexA",
			"rotation":[
				-0.014170934446156025,
				-0.021458979696035385,
				-0.009063491597771645,
				0.9996282458305359
			],
			"scale":[
				1,
				0.9999999403953552,
				0.9999999403953552
			],
			"translation":[
				0.010003606788814068,
				-0.18805985152721405,
				-0.04683852940797806
			]
		},
		{
			"name":"R_middleC",
			"rotation":[
				-3.92901711165905e-10,
				7.421476766467094e-10,
				7.275957614183426e-10,
				1
			],
			"translation":[
				-2.4049077183008194e-06,
				-0.04272696003317833,
				5.047768354415894e-07
			]
		},
		{
			"children":[
				27
			],
			"name":"R_middleB",
			"rotation":[
				-0.011248970404267311,
				-0.0017721090698614717,
				-0.002861244836822152,
				0.9999310374259949
			],
			"scale":[
				0.9999999403953552,
				1,
				1
			],
			"translation":[
				-4.996545612812042e-07,
				-0.04307316616177559,
				1.2293457984924316e-07
			]
		},
		{
			"children":[
				28
			],
			"name":"R_middleA",
			"rotation":[
				-0.01486099325120449,
				-0.057024888694286346,
				-0.00954102911055088,
				0.9982165694236755
			],
			"scale":[
				0.9999999403953552,
				1,
				1
			],
			"translation":[
				0.009956881403923035,
				-0.1973198652267456,
				-0.004476210102438927
			]
		},
		{
			"name":"R_ringC",
			"rotation":[
				7.119524081389272e-09,
				-1.4260876923799515e-09,
				6.111804395914078e-10,
				1
			],
			"scale":[
				1,
				1.0000001192092896,
				1
			],
			"translation":[
				-1.5077530406415462e-06,
				-0.03896075859665871,
				3.501772880554199e-07
			]
		},
		{
			"children":[
				30
			],
			"name":"R_ringB",
			"rotation":[
				0.01547795720398426,
				-0.0021639324259012938,
				-0.0035140474792569876,
				0.9998716711997986
			],
			"translation":[
				1.4224788174033165e-06,
				-0.04548018425703049,
				-2.7194619178771973e-07
			]
		},
		{
			"children":[
				31
			],
			"name":"R_ringA",
			"rotation":[
				-0.006274010054767132,
				-0.09910403937101364,
				-0.00864371657371521,
				0.9950197339057922
			],
			"scale":[
				0.9999999403953552,
				1.0000001192092896,
				0.9999999403953552
			],
			"translation":[
				0.0023306841030716896,
				-0.19337798655033112,
				0.035915080457925797
			]
		},
		{
			"name":"R_pinkyC",
			"rotation":[
				-1.7203350965999675e-09,
				-0.06104891374707222,
				2.915822028271009e-10,
				0.9981347918510437
			],
			"scale":[
				0.9999999403953552,
				0.9999999403953552,
				0.9999999403953552
			],
			"translation":[
				1.2665987014770508e-06,
				-0.03586813807487488,
				-8.624047040939331e-07
			]
		},
		{
			"children":[
				33
			],
			"name":"R_pinkyB",
			"rotation":[
				-0.0020109310280531645,
				-0.0277780219912529,
				-0.0025693573988974094,
				0.9996088147163391
			],
			"scale":[
				0.9999999403953552,
				0.9999998807907104,
				0.9999998807907104
			],
			"translation":[
				-1.832377165555954e-06,
				-0.04311385378241539,
				6.444752216339111e-07
			]
		},
		{
			"children":[
				34
			],
			"name":"R_pinkyA",
			"rotation":[
				-0.006571128964424133,
				-0.14049196243286133,
				-0.008712311275303364,
				0.9900216460227966
			],
			"translation":[
				-0.013334725052118301,
				-0.18550501763820648,
				0.07204149663448334
			]
		},
		{
			"name":"R_weapon",
			"rotation":[
				0.10826985538005829,
				0.6928651332855225,
				-0.7109000086784363,
				0.053261928260326385
			],
			"scale":[
				0.9999999403953552,
				0.9999998807907104,
				0.9999999403953552
			],
			"translation":[
				-0.10053511708974838,
				-0.1433350145816803,
				-0.005966026335954666
			]
		},
		{
			"children":[
				23,
				26,
				29,
				32,
				35,
				36
			],
			"name":"R_wrist",
			"rotation":[
				0.01566402055323124,
				0.09621504694223404,
				-0.013084151782095432,
				0.9951513409614563
			],
			"scale":[
				0.9999999403953552,
				0.9999998211860657,
				0.9999999403953552
			],
			"translation":[
				-9.467912605032325e-07,
				-0.3290928602218628,
				1.5995465219020844e-07
			]
		},
		{
			"children":[
				37
			],
			"name":"R_elbow",
			"rotation":[
				0.004235007334500551,
				0.00011800338688772172,
				0.01892092637717724,
				0.9998120069503784
			],
			"scale":[
				1.0000001192092896,
				1,
				1.0000001192092896
			],
			"translation":[
				4.111319867661223e-06,
				-0.23676185309886932,
				-1.3969838619232178e-09
			]
		},
		{
			"children":[
				38
			],
			"name":"R_shoulder",
			"rotation":[
				-0.009608016349375248,
				-0.0006190435378812253,
				0.001459114602766931,
				0.9999526143074036
			],
			"scale":[
				1,
				1,
				0.9999999403953552
			],
			"translation":[
				-0.07355987280607224,
				-0.23329275846481323,
				0.055272817611694336
			]
		},
		{
			"children":[
				39
			],
			"name":"R_clavicle",
			"rotation":[
				-0.707068681716919,
				-0.7070687413215637,
				0.007336013950407505,
				0.007336004171520472
			],
			"scale":[
				1.0000001192092896,
				1.0000004768371582,
				1
			],
			"translation":[
				-0.045787401497364044,
				0.3281201124191284,
				-0.06229199096560478
			]
		},
		{
			"children":[
				0,
				20,
				40
			],
			"name":"spineUpper",
			"rotation":[
				-2.448528491072466e-09,
				0,
				0,
				1
			],
			"translation":[
				0,
				0.20501790940761566,
				-0.024452202022075653
			]
		},
		{
			"children":[
				41
			],
			"name":"spineLower",
			"rotation":[
				1.7763568394002505e-15,
				0,
				0,
				1
			],
			"translation":[
				0,
				0.1608400195837021,
				0.023799998685717583
			]
		},
		{
			"name":"L_toe",
			"rotation":[
				-5.931890534327522e-10,
				-7.676590030314401e-08,
				5.311449058353901e-10,
				1
			],
			"scale":[
				1,
				1,
				1.0000001192092896
			],
			"translation":[
				-1.9787694327533245e-07,
				5.3783878684043884e-08,
				0.2128460854291916
			]
		},
		{
			"children":[
				43
			],
			"name":"L_ball",
			"rotation":[
				-0.07862307876348495,
				-0.021540097892284393,
				0.00652342289686203,
				0.9966503381729126
			],
			"scale":[
				0.9999999403953552,
				0.9999998807907104,
				0.9999998807907104
			],
			"translation":[
				-0.00765870651230216,
				0.14637422561645508,
				0.17189794778823853
			]
		},
		{
			"children":[
				44
			],
			"name":"L_ankle",
			"rotation":[
				0.07461193203926086,
				0.0179297998547554,
				0.003637503832578659,
				0.9970448017120361
			],
			"scale":[
				0.9999999403953552,
				1,
				1
			],
			"translation":[
				-5.675246939063072e-09,
				0.4311966896057129,
				-2.3283064365386963e-10
			]
		},
		{
			"children":[
				45
			],
			"name":"L_knee",
			"rotation":[
				-0.03610200807452202,
				0.004242509137839079,
				-0.0004780098097398877,
				0.9993390440940857
			],
			"scale":[
				0.9999999403953552,
				1,
				1
			],
			"translation":[
				5.8116711443290114e-09,
				0.4775291383266449,
				-2.179113778311148e-09
			]
		},
		{
			"children":[
				46
			],
			"name":"L_hip",
			"rotation":[
				-0.03827498108148575,
				-6.678374484181404e-05,
				-0.0017510070465505123,
				0.999265730381012
			],
			"scale":[
				1,
				1.0000001192092896,
				1
			],
			"translation":[
				-0.12311899662017822,
				0.16084004938602448,
				-0.023799991235136986
			]
		},
		{
			"name":"L_frontFlap",
			"rotation":[
				0.038965944200754166,
				-0.08687668293714523,
				-0.008778057061135769,
				0.9954180121421814
			],
			"scale":[
				0.9999999403953552,
				1,
				0.9999999403953552
			],
			"translation":[
				-0.08649319410324097,
				0.035584717988967896,
				0.1540519893169403
			]
		},
		{
			"name":"L_rearFlap",
			"rotation":[
				-0.15943600237369537,
				0.6009910106658936,
				-0.09748899936676025,
				0.7771009802818298
			],
			"translation":[
				-0.20915299654006958,
				0.04942632094025612,
				-0.05057960003614426
			]
		},
		{
			"name":"R_toe",
			"rotation":[
				3.890154687269387e-08,
				-1.786015673133079e-07,
				6.475602276623249e-10,
				1
			],
			"scale":[
				1,
				1,
				1.0000001192092896
			],
			"translation":[
				-4.4389162212610245e-07,
				-4.83938492834568e-07,
				-0.2128443568944931
			]
		},
		{
			"children":[
				50
			],
			"name":"R_ball",
			"rotation":[
				-0.07862239331007004,
				-0.02153395302593708,
				0.006523942109197378,
				0.9966505169868469
			],
			"scale":[
				0.9999999403953552,
				1,
				0.9999999403953552
			],
			"translation":[
				0.007656466215848923,
				-0.14637286961078644,
				-0.17189659178256989
			]
		},
		{
			"children":[
				51
			],
			"name":"R_ankle",
			"rotation":[
				0.07460940629243851,
				0.017926134169101715,
				0.003637036308646202,
				0.99704509973526
			],
			"scale":[
				0.9999999403953552,
				1,
				1
			],
			"translation":[
				3.457535058259964e-07,
				-0.4311971366405487,
				-8.067581802606583e-08
			]
		},
		{
			"children":[
				52
			],
			"name":"R_knee",
			"rotation":[
				-0.036101728677749634,
				0.004242956638336182,
				-0.00047801993787288666,
				0.9993389844894409
			],
			"scale":[
				0.9999999403953552,
				0.9999998211860657,
				0.9999998807907104
			],
			"translation":[
				5.574656825046986e-07,
				-0.47752702236175537,
				1.9611850632372807e-07
			]
		},
		{
			"children":[
				53
			],
			"name":"R_hip",
			"rotation":[
				0.9992656707763672,
				0.0017540116095915437,
				-6.681930972263217e-05,
				0.0382748618721962
			],
			"scale":[
				1,
				1.0000001192092896,
				1.0000083446502686
			],
			"translation":[
				0.12311899662017822,
				0.16084302961826324,
				-0.023800095543265343
			]
		},
		{
			"name":"R_frontFlap",
			"rotation":[
				-0.9954180717468262,
				-0.008778057992458344,
				0.08687647432088852,
				0.038965821266174316
			],
			"scale":[
				1.0000001192092896,
				1,
				1.0000098943710327
			],
			"translation":[
				0.08649319410324097,
				0.03558257222175598,
				0.1540519893169403
			]
		},
		{
			"name":"R_rearFlap",
			"rotation":[
				0.7771010398864746,
				0.09748902171850204,
				0.600990891456604,
				0.15943613648414612
			],
			"scale":[
				0.9999998807907104,
				1,
				0.9999988079071045
			],
			"translation":[
				0.20915299654006958,
				0.049422506242990494,
				-0.05057960003614426
			]
		},
		{
			"children":[
				47,
				48,
				49,
				54,
				55,
				56
			],
			"name":"pelvis",
			"rotation":[
				0,
				0,
				-1,
				0
			],
			"translation":[
				0,
				0.1608400195837021,
				0.023799998685717583
			]
		},
		{
			"children":[
				42,
				57
			],
			"name":"COG",
			"translation":[
				0,
				1.1063599586486816,
				0.06830500066280365
			]
		},
		{
			"name":"trajectory",
			"rotation":[
				1.7763568394002505e-15,
				0,
				0,
				1
			],
			"translation":[
				0,
				-2.9802322387695312e-08,
				0
			]
		},
		{
			"name":"camera",
			"rotation":[
				1.7763568394002505e-15,
				0,
				0,
				1
			],
			"translation":[
				0,
				-2.9802322387695312e-08,
				0
			]
		},
		{
			"children":[
				58,
				59,
				60
			],
			"name":"worldRoot",
			"scale":[
				1,
				0.9999999403953552,
				1
			],
			"translation":[
				0,
				0,
				5.053640174072107e-31
			]
		},
		{
			"children":[
				61
			],
			"name":"VS_Max",
			"rotation":[
				-1.7763568394002505e-15,
				0,
				0,
				1
			],
			"translation":[
				0,
				0,
				5.551115123125783e-17
			]
		},
		{
			"children":[
				62
			],
			"name":"CharacterWorldSpaceTM",
			"rotation":[
				-4.8676795927349303e-08,
				0,
				0,
				1
			]
		},
		{
			"mesh":0,
			"name":"Mesh_0",
			"skin":0
		},
		{
			"mesh":1,
			"name":"Mesh_0.001",
			"skin":0
		},
		{
			"children":[
				64,
				65,
				63
			],
			"name":"Armor_VS_Male_Max_Look001"
		}
	],
	"materials":[
		{
			"name":"VS_MAX_Armor",
			"pbrMetallicRoughness":{
				"baseColorTexture":{
					"index":0
				},
				"metallicFactor":0,
				"roughnessFactor":0.75
			}
		},
		{
			"name":"VS_MAX_Helmet",
			"pbrMetallicRoughness":{
				"baseColorTexture":{
					"index":1
				},
				"metallicFactor":0,
				"roughnessFactor":0.75
			}
		}
	],
	"meshes":[
		{
			"name":"Mesh_0",
			"primitives":[
				{
					"attributes":{
						"POSITION":0,
						"NORMAL":1,
						"TEXCOORD_0":2,
						"JOINTS_0":3,
						"WEIGHTS_0":4
					},
					"indices":5,
					"material":0
				}
			]
		},
		{
			"name":"Mesh_0.001",
			"primitives":[
				{
					"attributes":{
						"POSITION":7,
						"NORMAL":8,
						"TEXCOORD_0":9,
						"JOINTS_0":10,
						"WEIGHTS_0":11
					},
					"indices":12,
					"material":1
				}
			]
		}
	],
	"textures":[
		{
			"sampler":0,
			"source":0
		},
		{
			"sampler":0,
			"source":1
		}
	],
	"images":[
		{
			"mimeType":"image/png",
			"name":"planetside_vs_max_look001_diffuse.png",
			"uri":"planetside_vs_max_look001_diffuse.png"
		},
		{
			"mimeType":"image/png",
			"name":"planetside_vs_max_look001_helmet_diffuse.png",
			"uri":"planetside_vs_max_look001_helmet_diffuse.png"
		}
	],
	"skins":[
		{
			"inverseBindMatrices":6,
			"joints":[
				63,
				62,
				61,
				58,
				42,
				41,
				0,
				20,
				19,
				18,
				17,
				3,
				2,
				1,
				6,
				5,
				4,
				9,
				8,
				7,
				12,
				11,
				10,
				15,
				14,
				13,
				16,
				40,
				39,
				38,
				37,
				23,
				22,
				21,
				26,
				25,
				24,
				29,
				28,
				27,
				32,
				31,
				30,
				35,
				34,
				33,
				36,
				57,
				47,
				46,
				45,
				44,
				43,
				48,
				49,
				54,
				53,
				52,
				51,
				50,
				55,
				56,
				59,
				60
			],
			"name":"Armor_VS_Male_Max_Look001"
		}
	],
	"accessors":[
		{
			"bufferView":0,
			"componentType":5126,
			"count":13233,
			"max":[
				0.941456139087677,
				2.0024194717407227,
				0.39307940006256104
			],
			"min":[
				-0.941456139087677,
				-0.0012870272621512413,
				-0.2608821988105774
			],
			"type":"VEC3"
		},
		{
			"bufferView":1,
			"componentType":5126,
			"count":13233,
			"type":"VEC3"
		},
		{
			"bufferView":2,
			"componentType":5126,
			"count":13233,
			"type":"VEC2"
		},
		{
			"bufferView":3,
			"componentType":5121,
			"count":13233,
			"type":"VEC4"
		},
		{
			"bufferView":4,
			"componentType":5126,
			"count":13233,
			"type":"VEC4"
		},
		{
			"bufferView":5,
			"componentType":5123,
			"count":45885,
			"type":"SCALAR"
		},
		{
			"bufferView":6,
			"componentType":5126,
			"count":64,
			"type":"MAT4"
		},
		{
			"bufferView":7,
			"componentType":5126,
			"count":817,
			"max":[
				0.09729668498039246,
				2.211245536804199,
				0.1918305903673172
			],
			"min":[
				-0.09729669988155365,
				1.8683583736419678,
				-0.17828932404518127
			],
			"type":"VEC3"
		},
		{
			"bufferView":8,
			"componentType":5126,
			"count":817,
			"type":"VEC3"
		},
		{
			"bufferView":9,
			"componentType":5126,
			"count":817,
			"type":"VEC2"
		},
		{
			"bufferView":10,
			"componentType":5121,
			"count":817,
			"type":"VEC4"
		},
		{
			"bufferView":11,
			"componentType":5126,
			"count":817,
			"type":"VEC4"
		},
		{
			"bufferView":12,
			"componentType":5123,
			"count":3318,
			"type":"SCALAR"
		}
	],
	"bufferViews":[
		{
			"buffer":0,
			"byteLength":158796,
			"byteOffset":0,
			"target":34962
		},
		{
			"buffer":0,
			"byteLength":158796,
			"byteOffset":158796,
			"target":34962
		},
		{
			"buffer":0,
			"byteLength":105864,
			"byteOffset":317592,
			"target":34962
		},
		{
			"buffer":0,
			"byteLength":52932,
			"byteOffset":423456,
			"target":34962
		},
		{
			"buffer":0,
			"byteLength":211728,
			"byteOffset":476388,
			"target":34962
		},
		{
			"buffer":0,
			"byteLength":91770,
			"byteOffset":688116,
			"target":34963
		},
		{
			"buffer":0,
			"byteLength":4096,
			"byteOffset":779888
		},
		{
			"buffer":0,
			"byteLength":9804,
			"byteOffset":783984,
			"target":34962
		},
		{
			"buffer":0,
			"byteLength":9804,
			"byteOffset":793788,
			"target":34962
		},
		{
			"buffer":0,
			"byteLength":6536,
			"byteOffset":803592,
			"target":34962
		},
		{
			"buffer":0,
			"byteLength":3268,
			"byteOffset":810128,
			"target":34962
		},
		{
			"buffer":0,
			"byteLength":13072,
			"byteOffset":813396,
			"target":34962
		},
		{
			"buffer":0,
			"byteLength":6636,
			"byteOffset":826468,
			"target":34963
		}
	],
	"samplers":[
		{
			"magFilter":9729,
			"minFilter":9987
		}
	],
	"buffers":[
		{
			"byteLength":833104,
			"uri":"planetside_vs_max_look001.bin"
		}
	]
}
