{
	"asset":{
		"generator":"Khronos glTF Blender I/O v5.0.21",
		"version":"2.0"
	},
	"scene":0,
	"scenes":[
		{
			"name":"Scene",
			"nodes":[
				0,
				1
			]
		}
	],
	"nodes":[
		{
			"mesh":0,
			"name":"Mesh_0"
		},
		{
			"mesh":1,
			"name":"Mesh_0.001"
		}
	],
	"materials":[
		{
			"name":"VS_MAX_Armor",
			"pbrMetallicRoughness":{
				"baseColorTexture":{
					"index":0
				},
				"metallicFactor":0,
				"roughnessFactor":0.75
			}
		},
		{
			"name":"VS_MAX_Helmet",
			"pbrMetallicRoughness":{
				"baseColorTexture":{
					"index":1
				},
				"metallicFactor":0,
				"roughnessFactor":0.75
			}
		}
	],
	"meshes":[
		{
			"name":"Mesh_0",
			"primitives":[
				{
					"attributes":{
						"POSITION":0,
						"NORMAL":1,
						"TEXCOORD_0":2
					},
					"indices":3,
					"material":0
				}
			]
		},
		{
			"name":"Mesh_0.001",
			"primitives":[
				{
					"attributes":{
						"POSITION":4,
						"NORMAL":5,
						"TEXCOORD_0":6
					},
					"indices":7,
					"material":1
				}
			]
		}
	],
	"textures":[
		{
			"sampler":0,
			"source":0
		},
		{
			"sampler":0,
			"source":1
		}
	],
	"images":[
		{
			"mimeType":"image/png",
			"name":"planetside_vs_max_look001_rigid_diffuse.png",
			"uri":"planetside_vs_max_look001_rigid_diffuse.png"
		},
		{
			"mimeType":"image/png",
			"name":"planetside_vs_max_look001_rigid_helmet_diffuse.png",
			"uri":"planetside_vs_max_look001_rigid_helmet_diffuse.png"
		}
	],
	"accessors":[
		{
			"bufferView":0,
			"componentType":5126,
			"count":13232,
			"max":[
				0.9414559602737427,
				2.0024194717407227,
				0.39307940006256104
			],
			"min":[
				-0.9414560794830322,
				-0.0012872368097305298,
				-0.26088234782218933
			],
			"type":"VEC3"
		},
		{
			"bufferView":1,
			"componentType":5126,
			"count":13232,
			"type":"VEC3"
		},
		{
			"bufferView":2,
			"componentType":5126,
			"count":13232,
			"type":"VEC2"
		},
		{
			"bufferView":3,
			"componentType":5123,
			"count":45885,
			"type":"SCALAR"
		},
		{
			"bufferView":4,
			"componentType":5126,
			"count":817,
			"max":[
				0.09729669243097305,
				2.2112457752227783,
				0.19183053076267242
			],
			"min":[
				-0.09729669243097305,
				1.8683586120605469,
				-0.17828938364982605
			],
			"type":"VEC3"
		},
		{
			"bufferView":5,
			"componentType":5126,
			"count":817,
			"type":"VEC3"
		},
		{
			"bufferView":6,
			"componentType":5126,
			"count":817,
			"type":"VEC2"
		},
		{
			"bufferView":7,
			"componentType":5123,
			"count":3318,
			"type":"SCALAR"
		}
	],
	"bufferViews":[
		{
			"buffer":0,
			"byteLength":158784,
			"byteOffset":0,
			"target":34962
		},
		{
			"buffer":0,
			"byteLength":158784,
			"byteOffset":158784,
			"target":34962
		},
		{
			"buffer":0,
			"byteLength":105856,
			"byteOffset":317568,
			"target":34962
		},
		{
			"buffer":0,
			"byteLength":91770,
			"byteOffset":423424,
			"target":34963
		},
		{
			"buffer":0,
			"byteLength":9804,
			"byteOffset":515196,
			"target":34962
		},
		{
			"buffer":0,
			"byteLength":9804,
			"byteOffset":525000,
			"target":34962
		},
		{
			"buffer":0,
			"byteLength":6536,
			"byteOffset":534804,
			"target":34962
		},
		{
			"buffer":0,
			"byteLength":6636,
			"byteOffset":541340,
			"target":34963
		}
	],
	"samplers":[
		{
			"magFilter":9729,
			"minFilter":9987
		}
	],
	"buffers":[
		{
			"byteLength":547976,
			"uri":"planetside_vs_max_look001_rigid.bin"
		}
	]
}
